<?xml version="1.0" encoding="UTF-8"?>
<svg width="132px" height="35px" viewBox="0 0 132 35" version="1.1" xmlns="http://www.w3.org/2000/svg" xmlns:xlink="http://www.w3.org/1999/xlink">
    <!-- Generator: Sketch 48.2 (47327) - http://www.bohemiancoding.com/sketch -->
    <title>Group</title>
    <desc>Created with Sketch.</desc>
    <defs></defs>
    <g id="Desktop" stroke="none" stroke-width="1" fill="none" fill-rule="evenodd" transform="translate(-21.000000, -23.000000)">
        <g id="Group" transform="translate(21.000000, 23.000000)" fill="#FFFFFF">
            <path d="M20,22.7201118 C20,25.0740927 18.1350086,27 15.8536585,27 L4.14634146,27 C1.8658126,27 0,25.0740927 0,22.7201118 L0,4.27988823 C0,1.92590732 1.8658126,0 4.14634146,0 L15.8536585,0 C18.1350086,0 20,1.92590732 20,4.27988823 L20,22.7201118 Z M10.8206455,6.34286387 C10.8206455,7.84324061 11.9999179,9.05964775 13.4542991,9.05964775 C14.9078591,9.05964775 16.0863103,7.84324061 16.0863103,6.34286387 C16.0863103,4.84163946 14.9078591,3.62523232 13.4542991,3.62523232 C11.9999179,3.62523232 10.8206455,4.84163946 10.8206455,6.34286387 Z" id="Combined-Shape"></path>
            <path d="M42.99488,3.38256 C43.4585623,3.38256 43.8315186,3.52367859 44.11376,3.80592 C44.3960014,4.08816141 44.53712,4.46111768 44.53712,4.9248 L44.53712,18.71424 C44.53712,20.2867279 44.1692037,21.7130336 43.43336,22.9932 C42.6975163,24.2733664 41.6996063,25.2813563 40.4396,26.0172 C39.1795937,26.7530437 37.7734478,27.12096 36.22112,27.12096 C34.6687922,27.12096 33.2525664,26.7530437 31.9724,26.0172 C30.6922336,25.2813563 29.6892836,24.2733664 28.96352,22.9932 C28.2377564,21.7130336 27.87488,20.2867279 27.87488,18.71424 C27.87488,17.1417521 28.2125566,15.7154464 28.88792,14.43528 C29.5632834,13.1551136 30.4906341,12.1521636 31.67,11.4264 C32.8493659,10.7006364 34.1647927,10.33776 35.61632,10.33776 C36.7856058,10.33776 37.874235,10.5796776 38.88224,11.06352 C39.890245,11.5473624 40.7470365,12.2227157 41.45264,13.0896 L41.45264,4.9248 C41.45264,4.46111768 41.5987985,4.08816141 41.89112,3.80592 C42.1834415,3.52367859 42.5513578,3.38256 42.99488,3.38256 Z M36.22112,24.39936 C37.229125,24.39936 38.1413559,24.1524025 38.95784,23.65848 C39.7743241,23.1645575 40.4143977,22.4841643 40.87808,21.61728 C41.3417623,20.7503957 41.5736,19.7827253 41.5736,18.71424 C41.5736,17.6457547 41.3417623,16.6831243 40.87808,15.82632 C40.4143977,14.9695157 39.7743241,14.2941625 38.95784,13.80024 C38.1413559,13.3063175 37.229125,13.05936 36.22112,13.05936 C35.213115,13.05936 34.3008841,13.3063175 33.4844,13.80024 C32.6679159,14.2941625 32.0228024,14.9695157 31.54904,15.82632 C31.0752776,16.6831243 30.8384,17.6457547 30.8384,18.71424 C30.8384,19.7827253 31.0752776,20.7503957 31.54904,21.61728 C32.0228024,22.4841643 32.6679159,23.1645575 33.4844,23.65848 C34.3008841,24.1524025 35.213115,24.39936 36.22112,24.39936 Z M57.47984,10.33776 C59.072488,10.33776 60.4987937,10.6955964 61.7588,11.41128 C63.0188063,12.1269636 64.0066364,13.1198336 64.72232,14.38992 C65.4380036,15.6600064 65.79584,17.1115118 65.79584,18.74448 C65.79584,20.3572881 65.4430435,21.7987136 64.73744,23.0688 C64.0318365,24.3388864 63.0490463,25.3317564 61.78904,26.04744 C60.5290337,26.7631236 59.0926481,27.12096 57.47984,27.12096 C55.8670319,27.12096 54.4256064,26.7631236 53.15552,26.04744 C51.8854336,25.3317564 50.8976035,24.3388864 50.192,23.0688 C49.4863965,21.7987136 49.1336,20.3572881 49.1336,18.74448 C49.1336,17.1115118 49.4863965,15.6600064 50.192,14.38992 C50.8976035,13.1198336 51.8854336,12.1269636 53.15552,11.41128 C54.4256064,10.6955964 55.8670319,10.33776 57.47984,10.33776 Z M57.47984,13.05936 C56.4516749,13.05936 55.5293641,13.3012776 54.71288,13.78512 C53.8963959,14.2689624 53.2563223,14.9443157 52.79264,15.8112 C52.3289577,16.6780843 52.09712,17.6558346 52.09712,18.74448 C52.09712,19.8331254 52.3289577,20.8058357 52.79264,21.66264 C53.2563223,22.5194443 53.8963959,23.1897576 54.71288,23.6736 C55.5293641,24.1574424 56.4516749,24.39936 57.47984,24.39936 C58.5080051,24.39936 59.4303159,24.1574424 60.2468,23.6736 C61.0632841,23.1897576 61.6983177,22.5194443 62.15192,21.66264 C62.6055223,20.8058357 62.83232,19.8331254 62.83232,18.74448 C62.83232,17.6558346 62.6055223,16.6780843 62.15192,15.8112 C61.6983177,14.9443157 61.0632841,14.2689624 60.2468,13.78512 C59.4303159,13.3012776 58.5080051,13.05936 57.47984,13.05936 Z M78.49664,10.27728 C79.5651253,10.27728 80.401757,10.4385584 81.00656,10.76112 C81.611363,11.0836816 81.91376,11.4868776 81.91376,11.97072 C81.91376,12.1118407 81.9036801,12.2126397 81.88352,12.27312 C81.7020791,12.9182432 81.2988831,13.2408 80.67392,13.2408 C80.5731195,13.2408 80.421921,13.2206402 80.22032,13.18032 C79.413916,13.0391993 78.7587225,12.96864 78.25472,12.96864 C76.8031927,12.96864 75.6339244,13.3012767 74.74688,13.96656 C73.8598356,14.6318433 73.41632,15.5289544 73.41632,16.65792 L73.41632,25.488 C73.41632,25.9718424 73.2903213,26.3447987 73.03832,26.60688 C72.7863187,26.8689613 72.4083225,27 71.90432,27 C71.4204776,27 71.0475213,26.8740013 70.78544,26.622 C70.5233587,26.3699987 70.39232,25.9920025 70.39232,25.488 L70.39232,11.97072 C70.39232,11.4868776 70.5233587,11.1139213 70.78544,10.85184 C71.0475213,10.5897587 71.4204776,10.45872 71.90432,10.45872 C72.912325,10.45872 73.41632,10.962715 73.41632,11.97072 L73.41632,12.54528 C74.021123,11.8396765 74.7670356,11.285282 75.65408,10.88208 C76.5411244,10.478878 77.488635,10.27728 78.49664,10.27728 Z M92.13488,23.976 C92.4977618,23.976 92.8051987,24.1171186 93.0572,24.39936 C93.3092013,24.6816014 93.4352,25.0444778 93.4352,25.488 C93.4352,25.9315222 93.2688817,26.2943986 92.93624,26.57664 C92.6035983,26.8588814 92.1752026,27 91.65104,27 L91.10672,27 C90.1188751,27 89.2167241,26.7429626 88.40024,26.22888 C87.5837559,25.7147974 86.9436823,25.0142444 86.48,24.1272 C86.0163177,23.2401556 85.78448,22.2422455 85.78448,21.13344 L85.78448,13.66416 L84.39344,13.66416 C83.9700779,13.66416 83.6273613,13.5432012 83.36528,13.30128 C83.1031987,13.0593588 82.97216,12.7569618 82.97216,12.39408 C82.97216,11.990878 83.1031987,11.6683212 83.36528,11.4264 C83.6273613,11.1844788 83.9700779,11.06352 84.39344,11.06352 L85.78448,11.06352 L85.78448,6.70896 C85.78448,6.26543778 85.9255986,5.90256141 86.20784,5.62032 C86.4900814,5.33807859 86.8529578,5.19696 87.29648,5.19696 C87.7400022,5.19696 88.1028786,5.33807859 88.38512,5.62032 C88.6673614,5.90256141 88.80848,6.26543778 88.80848,6.70896 L88.80848,11.06352 L91.37888,11.06352 C91.8022421,11.06352 92.1449587,11.1844788 92.40704,11.4264 C92.6691213,11.6683212 92.80016,11.990878 92.80016,12.39408 C92.80016,12.7569618 92.6691213,13.0593588 92.40704,13.30128 C92.1449587,13.5432012 91.8022421,13.66416 91.37888,13.66416 L88.80848,13.66416 L88.80848,21.13344 C88.80848,21.939844 89.0302378,22.6151973 89.47376,23.15952 C89.9172822,23.7038427 90.4615968,23.976 91.10672,23.976 L92.13488,23.976 Z M105.44048,10.30752 C106.831527,10.30752 108.081434,10.609917 109.19024,11.21472 C110.299046,11.819523 111.165917,12.7015142 111.79088,13.86072 C112.415843,15.0199258 112.72832,16.4159918 112.72832,18.04896 L112.72832,25.488 C112.72832,25.9315222 112.582161,26.2994385 112.28984,26.59176 C111.997519,26.8840815 111.629602,27.03024 111.18608,27.03024 C110.742558,27.03024 110.374641,26.8840815 110.08232,26.59176 C109.789999,26.2994385 109.64384,25.9315222 109.64384,25.488 L109.64384,18.04896 C109.64384,16.4159918 109.205364,15.1812042 108.3284,14.34456 C107.451436,13.5079158 106.287207,13.0896 104.83568,13.0896 C103.988956,13.0896 103.217843,13.2609583 102.52232,13.60368 C101.826797,13.9464017 101.282482,14.4100771 100.88936,14.99472 C100.496238,15.5793629 100.29968,16.2345564 100.29968,16.96032 L100.29968,25.488 C100.29968,25.9315222 100.158561,26.2994385 99.87632,26.59176 C99.5940786,26.8840815 99.2211223,27.03024 98.75744,27.03024 C98.3139178,27.03024 97.9460015,26.8840815 97.65368,26.59176 C97.3613585,26.2994385 97.2152,25.9315222 97.2152,25.488 L97.2152,4.9248 C97.2152,4.46111768 97.3613585,4.08816141 97.65368,3.80592 C97.9460015,3.52367859 98.3139178,3.38256 98.75744,3.38256 C99.2211223,3.38256 99.5940786,3.52367859 99.87632,3.80592 C100.158561,4.08816141 100.29968,4.46111768 100.29968,4.9248 L100.29968,12.3336 C100.944803,11.6884768 101.710876,11.1895218 102.59792,10.83672 C103.484964,10.4839182 104.432475,10.30752 105.44048,10.30752 Z M130.50944,10.60992 C131.134403,10.8518412 131.44688,11.2449573 131.44688,11.78928 C131.44688,11.990881 131.386401,12.2327986 131.26544,12.51504 L122.012,33.32016 C121.770079,33.9451231 121.376963,34.2576 120.83264,34.2576 C120.631039,34.2576 120.389121,34.1971206 120.10688,34.07616 C119.502077,33.8140787 119.19968,33.4209626 119.19968,32.8968 C119.19968,32.6548788 119.260159,32.4129612 119.38112,32.17104 L122.40512,25.36704 L115.60112,12.45456 C115.500319,12.2731191 115.44992,12.0614412 115.44992,11.81952 C115.44992,11.5574387 115.530559,11.3155211 115.69184,11.09376 C115.853121,10.8719989 116.064799,10.7006406 116.32688,10.57968 C116.508321,10.4990396 116.709919,10.45872 116.93168,10.45872 C117.496163,10.45872 117.919519,10.7409572 118.20176,11.30544 L123.73568,22.3128 L128.60432,11.33568 C128.866401,10.7510371 129.259517,10.45872 129.78368,10.45872 C130.045761,10.45872 130.287679,10.5091195 130.50944,10.60992 Z" id="dorthy"></path>
        </g>
    </g>
</svg>